<svg width="34" height="19" viewBox="0 0 34 19" fill="none" xmlns="http://www.w3.org/2000/svg">
<g id="icon / mastercard">
<path id="Path" d="M23.4687 2L14.5659 2L14.5659 16.7071H23.4687V2Z" fill="#FF5F00"/>
<path id="Path_2" d="M15.4822 9.35474C15.481 7.93859 15.7984 6.54074 16.4103 5.26697C17.0222 3.99321 17.9125 2.87691 19.014 2.00254C17.6498 0.918223 16.0115 0.243938 14.2864 0.0567684C12.5613 -0.130388 10.8189 0.177099 9.25845 0.944119C7.69794 1.71114 6.38228 2.90673 5.46181 4.39425C4.54135 5.88177 4.05322 7.60121 4.05322 9.35605C4.05322 11.1109 4.54135 12.8303 5.46181 14.3178C6.38228 15.8054 7.69794 17.0009 9.25845 17.768C10.8189 18.535 12.5613 18.8425 14.2864 18.6553C16.0115 18.4681 17.6498 17.7939 19.014 16.7095C17.9122 15.8349 17.0216 14.7182 16.4097 13.444C15.7979 12.1697 15.4806 10.7713 15.4822 9.35474Z" fill="#EB001B"/>
<path id="Shape" fill-rule="evenodd" clip-rule="evenodd" d="M0.177181 8.86526L0.177181 9.16659H0.120717L0.120717 8.86526H0L0 8.80298H0.305686V8.86526H0.177181ZM0.770401 8.80298L0.770401 9.16659H0.706279L0.706279 8.89129L0.606071 9.12768H0.536756L0.436548 8.89129L0.436548 9.16659H0.369699L0.369699 8.80298H0.462249L0.570115 9.06274L0.677981 8.80298H0.770401Z" fill="#F79E1B"/>
<path id="Path_3" d="M33.9758 9.35501C33.9757 11.11 33.4875 12.8295 32.5669 14.3171C31.6462 15.8046 30.3304 17.0002 28.7697 17.7672C27.2091 18.5341 25.4664 18.8414 23.7412 18.6539C22.016 18.4665 20.3778 17.7919 19.0137 16.7073C20.1147 15.8321 21.0047 14.7155 21.6169 13.4416C22.2289 12.1677 22.5469 10.77 22.5469 9.35371C22.5469 7.93742 22.2289 6.53962 21.6169 5.2658C21.0047 3.99195 20.1147 2.87535 19.0137 2.00022C20.3778 0.915551 22.016 0.240935 23.7412 0.0534999C25.4664 -0.133936 27.2091 0.173366 28.7697 0.940279C30.3304 1.70718 31.6462 2.90276 32.5669 4.39033C33.4875 5.8779 33.9757 7.59745 33.9758 9.35242V9.35501Z" fill="#F79E1B"/>
</g>
</svg>
