<svg width="309" height="458" viewBox="0 0 309 458" fill="none" xmlns="http://www.w3.org/2000/svg">
<g filter="url(#filter0_d_65_6832)">
<path d="M13.2368 15.507C12.4247 16.523 11.9992 17.6645 12 18.8249L12 261.93C12.004 263.353 12.6499 264.74 13.848 265.897C15.0461 267.055 16.737 267.927 18.6856 268.391C22.6652 269.346 26.1151 271.133 28.5564 273.504C30.9978 275.874 32.3095 278.71 32.3095 281.619C32.3095 284.527 30.9978 287.363 28.5564 289.734C26.1151 292.104 22.6652 293.891 18.6856 294.847C16.737 295.311 15.0461 296.182 13.848 297.34C12.6499 298.498 12.004 299.884 12 301.307L12 439.124C11.9991 440.024 12.2551 440.915 12.7533 441.746C13.2515 442.578 13.9821 443.333 14.9035 443.97C15.8249 444.606 16.9189 445.111 18.1231 445.455C19.3272 445.8 20.6179 445.977 21.9214 445.977L287.079 445.977C288.382 445.977 289.673 445.8 290.877 445.455C292.081 445.111 293.175 444.606 294.096 443.97C295.018 443.333 295.748 442.578 296.247 441.746C296.745 440.915 297.001 440.024 297 439.124L297 301.33C296.996 299.907 296.35 298.521 295.152 297.363C293.954 296.205 292.263 295.334 290.314 294.87C286.335 293.914 282.885 292.127 280.444 289.757C278.002 287.386 276.69 284.55 276.69 281.642C276.69 278.733 278.002 275.897 280.444 273.527C282.885 271.156 286.335 269.369 290.314 268.414C292.263 267.95 293.954 267.078 295.152 265.921C296.35 264.763 296.996 263.376 297 261.953L297 18.8479C297.001 17.9485 296.745 17.0577 296.247 16.2266C295.748 15.3954 295.017 14.6403 294.096 14.0042C293.175 13.3682 292.08 12.8638 290.876 12.5199C289.672 12.1759 288.382 11.9992 287.079 11.9998L21.9214 11.9998C20.1524 11.9973 18.4146 12.3211 16.8878 12.9377C15.3609 13.5543 14.1004 14.4413 13.2368 15.507ZM263.866 280.467C264.202 280.465 264.532 280.532 264.812 280.66C265.093 280.788 265.312 280.971 265.44 281.185C265.569 281.399 265.602 281.635 265.535 281.863C265.467 282.09 265.303 282.298 265.063 282.461C264.743 282.676 264.313 282.797 263.866 282.798L244.237 282.798C243.902 282.799 243.574 282.731 243.294 282.603C243.015 282.475 242.797 282.293 242.668 282.079C242.539 281.866 242.505 281.63 242.57 281.403C242.635 281.176 242.797 280.968 243.034 280.804C243.356 280.588 243.788 280.467 244.237 280.467L263.866 280.467ZM230.238 280.467C230.573 280.466 230.901 280.534 231.181 280.662C231.46 280.79 231.678 280.972 231.807 281.186C231.936 281.399 231.97 281.635 231.905 281.862C231.84 282.089 231.678 282.297 231.441 282.461C231.118 282.677 230.687 282.797 230.238 282.798L210.609 282.798C210.273 282.799 209.945 282.731 209.666 282.603C209.386 282.475 209.168 282.293 209.039 282.079C208.91 281.866 208.876 281.63 208.942 281.403C209.007 281.176 209.168 280.968 209.405 280.804C209.727 280.588 210.159 280.467 210.609 280.467L230.238 280.467ZM196.609 280.467C196.84 280.457 197.071 280.48 197.288 280.534C197.506 280.588 197.705 280.672 197.873 280.781C198.042 280.891 198.176 281.022 198.268 281.169C198.36 281.315 198.407 281.473 198.407 281.633C198.407 281.792 198.36 281.95 198.268 282.096C198.176 282.243 198.042 282.374 197.873 282.484C197.705 282.593 197.506 282.677 197.288 282.731C197.071 282.785 196.84 282.808 196.609 282.798L176.954 282.798C176.62 282.797 176.294 282.728 176.016 282.599C175.739 282.471 175.522 282.289 175.394 282.076C175.266 281.864 175.231 281.63 175.294 281.403C175.358 281.177 175.516 280.969 175.75 280.804C176.072 280.588 176.504 280.467 176.954 280.467L196.609 280.467ZM162.987 280.467C163.218 280.457 163.449 280.48 163.667 280.534C163.884 280.588 164.083 280.672 164.251 280.781C164.42 280.891 164.554 281.022 164.646 281.169C164.738 281.315 164.785 281.473 164.785 281.633C164.785 281.792 164.738 281.95 164.646 282.096C164.554 282.243 164.42 282.374 164.251 282.484C164.083 282.593 163.884 282.677 163.667 282.731C163.449 282.785 163.218 282.808 162.987 282.798L143.345 282.798C143.012 282.796 142.687 282.726 142.41 282.597C142.134 282.469 141.918 282.287 141.791 282.074C141.663 281.862 141.629 281.628 141.693 281.402C141.756 281.176 141.915 280.968 142.148 280.804C142.469 280.589 142.898 280.468 143.345 280.467L162.987 280.467ZM129.359 280.467C129.581 280.467 129.8 280.496 130.006 280.555C130.211 280.613 130.397 280.698 130.554 280.806C130.712 280.914 130.836 281.043 130.921 281.184C131.006 281.326 131.05 281.477 131.05 281.63C131.051 281.941 130.876 282.239 130.562 282.461C130.239 282.676 129.808 282.797 129.359 282.798L109.73 282.798C109.395 282.799 109.066 282.731 108.787 282.603C108.508 282.475 108.289 282.293 108.161 282.079C108.032 281.866 107.997 281.63 108.063 281.403C108.128 281.176 108.289 280.968 108.527 280.804C108.848 280.587 109.28 280.466 109.73 280.467L129.359 280.467ZM95.7303 280.467C96.0665 280.465 96.396 280.532 96.6765 280.66C96.9571 280.788 97.1758 280.971 97.3045 281.185C97.4332 281.399 97.466 281.635 97.3987 281.863C97.3315 282.09 97.1672 282.298 96.927 282.461C96.6068 282.676 96.1775 282.797 95.7303 282.798L76.1014 282.798C75.7661 282.799 75.4379 282.731 75.1584 282.603C74.879 282.475 74.661 282.293 74.532 282.079C74.403 281.866 74.369 281.63 74.4341 281.403C74.4993 281.176 74.6607 280.968 74.898 280.804C75.2198 280.588 75.6519 280.467 76.1014 280.467L95.7303 280.467ZM62.1018 280.467C62.3239 280.467 62.544 280.496 62.7496 280.554C62.9551 280.613 63.1421 280.698 63.2998 280.806C63.4575 280.914 63.5828 281.042 63.6686 281.184C63.7544 281.325 63.799 281.477 63.7999 281.63C63.8017 281.784 63.759 281.937 63.6742 282.08C63.5894 282.222 63.4643 282.352 63.3061 282.46C63.148 282.569 62.96 282.655 62.7532 282.713C62.5464 282.771 62.325 282.8 62.1018 282.798L42.4729 282.798C42.2423 282.808 42.0111 282.785 41.7937 282.731C41.5763 282.677 41.3772 282.593 41.2088 282.484C41.0403 282.374 40.9061 282.243 40.8143 282.096C40.7225 281.95 40.6751 281.792 40.6751 281.633C40.6751 281.473 40.7225 281.315 40.8143 281.169C40.9061 281.022 41.0403 280.891 41.2088 280.781C41.3772 280.672 41.5763 280.588 41.7937 280.534C42.0111 280.48 42.2423 280.457 42.4729 280.467L62.1018 280.467Z" fill="white"/>
</g>
<defs>
<filter id="filter0_d_65_6832" x="0" y="-0.000244141" width="309" height="457.977" filterUnits="userSpaceOnUse" color-interpolation-filters="sRGB">
<feFlood flood-opacity="0" result="BackgroundImageFix"/>
<feColorMatrix in="SourceAlpha" type="matrix" values="0 0 0 0 0 0 0 0 0 0 0 0 0 0 0 0 0 0 127 0" result="hardAlpha"/>
<feOffset/>
<feGaussianBlur stdDeviation="6"/>
<feComposite in2="hardAlpha" operator="out"/>
<feColorMatrix type="matrix" values="0 0 0 0 0 0 0 0 0 0 0 0 0 0 0 0 0 0 0.25 0"/>
<feBlend mode="normal" in2="BackgroundImageFix" result="effect1_dropShadow_65_6832"/>
<feBlend mode="normal" in="SourceGraphic" in2="effect1_dropShadow_65_6832" result="shape"/>
</filter>
</defs>
</svg>
