<svg width="72" height="134" viewBox="0 0 72 134" fill="none" xmlns="http://www.w3.org/2000/svg">
<path d="M71.4895 0.707031L0.832275 0.707031L0.832275 3.01748L71.4895 3.01748V0.707031Z" fill="#109460"/>
<path d="M71.4895 4.17285L0.832275 4.17285L0.832275 6.4833L71.4895 6.4833V4.17285Z" fill="#109460"/>
<path d="M71.4895 7.63867L0.832275 7.63867L0.832275 11.1043L71.4895 11.1043V7.63867Z" fill="#109460"/>
<path d="M71.4895 19.1904L0.832275 19.1904L0.832275 21.5009L71.4895 21.5009V19.1904Z" fill="#109460"/>
<path d="M71.4895 27.2773L0.832275 27.2773L0.832275 29.5878L71.4895 29.5878V27.2773Z" fill="#109460"/>
<path d="M71.4895 30.7432L0.832275 30.7432L0.832275 31.8984L71.4895 31.8984V30.7432Z" fill="#109460"/>
<path d="M71.4895 34.208L0.832275 34.208L0.832275 35.3632L71.4895 35.3632V34.208Z" fill="#109460"/>
<path d="M71.4895 38.8291L0.832275 38.8291L0.832275 39.9843L71.4895 39.9843V38.8291Z" fill="#109460"/>
<path d="M71.4895 42.2949L0.832275 42.2949L0.832275 44.6054L71.4895 44.6054V42.2949Z" fill="#109460"/>
<path d="M71.4895 50.3818L0.832275 50.3818L0.832275 51.5371L71.4895 51.5371V50.3818Z" fill="#109460"/>
<path d="M71.4895 57.3125L0.832275 57.3125L0.832275 59.6229L71.4895 59.6229V57.3125Z" fill="#109460"/>
<path d="M71.4895 61.9336L0.832275 61.9336L0.832275 63.0888L71.4895 63.0888V61.9336Z" fill="#109460"/>
<path d="M71.4895 64.2441L0.832275 64.2441L0.832275 66.5546L71.4895 66.5546V64.2441Z" fill="#109460"/>
<path d="M71.4895 72.3311L0.832275 72.3311L0.832275 73.4863L71.4895 73.4863V72.3311Z" fill="#109460"/>
<path d="M71.4895 82.7275L0.832275 82.7275L0.832275 86.1932L71.4895 86.1932V82.7275Z" fill="#109460"/>
<path d="M71.4895 86.1934L0.832275 86.1934L0.832275 88.5038L71.4895 88.5038V86.1934Z" fill="#109460"/>
<path d="M71.4895 90.8145L0.832275 90.8145L0.832275 91.9697L71.4895 91.9697V90.8145Z" fill="#109460"/>
<path d="M71.4895 91.9697L0.832275 91.9697L0.832275 93.125L71.4895 93.125V91.9697Z" fill="#109460"/>
<path d="M71.4895 94.2803L0.832275 94.2803L0.832275 95.4355L71.4895 95.4355V94.2803Z" fill="#109460"/>
<path d="M71.4895 98.9014L0.832275 98.9014L0.832275 100.057L71.4895 100.057V98.9014Z" fill="#109460"/>
<path d="M71.4895 103.521L0.832275 103.521L0.832275 104.677L71.4895 104.677V103.521Z" fill="#109460"/>
<path d="M71.4895 104.677L0.832275 104.677L0.832275 108.142L71.4895 108.142V104.677Z" fill="#109460"/>
<path d="M71.4895 110.453L0.832275 110.453L0.832275 111.608L71.4895 111.608V110.453Z" fill="#109460"/>
<path d="M71.4895 113.919L0.832275 113.919L0.832275 115.074L71.4895 115.074V113.919Z" fill="#109460"/>
<path d="M71.4895 117.385L0.832275 117.385L0.832275 118.54L71.4895 118.54V117.385Z" fill="#109460"/>
<path d="M71.4895 120.851L0.832275 120.851L0.832275 123.161L71.4895 123.161V120.851Z" fill="#109460"/>
<path d="M71.4895 124.316L0.832275 124.316L0.832275 125.472L71.4895 125.472V124.316Z" fill="#109460"/>
<path d="M71.4895 127.781L0.832275 127.781L0.832275 128.936H71.4895V127.781Z" fill="#109460"/>
<path d="M71.4895 131.247H0.832275L0.832275 133.558H71.4895V131.247Z" fill="#109460"/>
</svg>
