<svg width="215" height="90" viewBox="0 0 215 90" fill="none" xmlns="http://www.w3.org/2000/svg">
<path d="M-3.93403e-06 -7.62939e-06L0 90L3.73913 90L3.73913 -7.79284e-06L-3.93403e-06 -7.62939e-06Z" fill="#109460"/>
<path d="M5.60888 -7.62939e-06L5.60889 90L9.34802 90L9.34801 -7.79284e-06L5.60888 -7.62939e-06Z" fill="#109460"/>
<path d="M11.2173 -7.62939e-06L11.2173 90L16.826 90L16.826 -7.87456e-06L11.2173 -7.62939e-06Z" fill="#109460"/>
<path d="M29.9131 -7.62939e-06L29.9131 90L33.6522 90L33.6522 -7.79284e-06L29.9131 -7.62939e-06Z" fill="#109460"/>
<path d="M43 -7.62939e-06L43 90L46.7391 90L46.7391 -7.79284e-06L43 -7.62939e-06Z" fill="#109460"/>
<path d="M48.6089 -7.62939e-06L48.6089 90L50.4785 90L50.4784 -7.71112e-06L48.6089 -7.62939e-06Z" fill="#109460"/>
<path d="M54.2173 -7.62939e-06L54.2173 90L56.0869 90L56.0868 -7.71112e-06L54.2173 -7.62939e-06Z" fill="#109460"/>
<path d="M61.6958 -7.62939e-06L61.6958 90L63.5654 90L63.5654 -7.71112e-06L61.6958 -7.62939e-06Z" fill="#109460"/>
<path d="M67.3042 -7.62939e-06L67.3042 90L71.0433 90L71.0433 -7.79284e-06L67.3042 -7.62939e-06Z" fill="#109460"/>
<path d="M80.3911 -7.62939e-06L80.3911 90L82.2607 90L82.2607 -7.71112e-06L80.3911 -7.62939e-06Z" fill="#109460"/>
<path d="M91.6089 -7.62939e-06L91.6089 90L95.348 90L95.348 -7.79284e-06L91.6089 -7.62939e-06Z" fill="#109460"/>
<path d="M99.0869 -7.62939e-06L99.0869 90L100.956 90L100.956 -7.71112e-06L99.0869 -7.62939e-06Z" fill="#109460"/>
<path d="M102.826 -7.62939e-06L102.826 90L106.565 90L106.565 -7.79284e-06L102.826 -7.62939e-06Z" fill="#109460"/>
<path d="M115.913 -7.62939e-06L115.913 90L117.783 90L117.783 -7.71112e-06L115.913 -7.62939e-06Z" fill="#109460"/>
<path d="M132.739 -7.62939e-06L132.739 90L138.348 90L138.348 -7.87456e-06L132.739 -7.62939e-06Z" fill="#109460"/>
<path d="M138.348 -7.62939e-06L138.348 90L142.087 90L142.087 -7.79284e-06L138.348 -7.62939e-06Z" fill="#109460"/>
<path d="M145.826 -7.62939e-06L145.826 90L147.696 90L147.696 -7.71112e-06L145.826 -7.62939e-06Z" fill="#109460"/>
<path d="M147.696 -7.62939e-06L147.696 90L149.565 90L149.565 -7.71112e-06L147.696 -7.62939e-06Z" fill="#109460"/>
<path d="M151.435 -7.62939e-06L151.435 90L153.304 90L153.304 -7.71112e-06L151.435 -7.62939e-06Z" fill="#109460"/>
<path d="M158.913 -7.62939e-06L158.913 90L160.783 90L160.783 -7.71112e-06L158.913 -7.62939e-06Z" fill="#109460"/>
<path d="M166.391 -7.62939e-06L166.391 90L168.261 90L168.261 -7.71112e-06L166.391 -7.62939e-06Z" fill="#109460"/>
<path d="M168.261 -7.62939e-06L168.261 90L173.869 90L173.869 -7.87456e-06L168.261 -7.62939e-06Z" fill="#109460"/>
<path d="M177.609 -7.62939e-06L177.609 90L179.478 90L179.478 -7.71112e-06L177.609 -7.62939e-06Z" fill="#109460"/>
<path d="M183.217 -7.62939e-06L183.217 90L185.087 90L185.087 -7.71112e-06L183.217 -7.62939e-06Z" fill="#109460"/>
<path d="M188.826 -7.62939e-06L188.826 90L190.696 90L190.696 -7.71112e-06L188.826 -7.62939e-06Z" fill="#109460"/>
<path d="M194.435 -7.62939e-06L194.435 90L198.174 90L198.174 -7.79284e-06L194.435 -7.62939e-06Z" fill="#109460"/>
<path d="M200.043 -7.62939e-06L200.043 90L201.913 90L201.913 -7.71112e-06L200.043 -7.62939e-06Z" fill="#109460"/>
<path d="M205.652 -7.62939e-06L205.652 90L207.522 90L207.522 -7.71112e-06L205.652 -7.62939e-06Z" fill="#109460"/>
<path d="M211.261 -7.62939e-06L211.261 90L215 90L215 -7.79284e-06L211.261 -7.62939e-06Z" fill="#109460"/>
</svg>
