<svg width="455" height="183" viewBox="0 0 455 183" fill="none" xmlns="http://www.w3.org/2000/svg">
<g filter="url(#filter0_d_107_3313)">
<path d="M438.889 12.6868C437.881 12.2359 436.749 11.9996 435.598 12L194.516 12C193.105 12.0022 191.73 12.3609 190.581 13.0262C189.433 13.6916 188.569 14.6305 188.109 15.7126C187.161 17.9226 185.389 19.8384 183.038 21.1941C180.688 22.5498 177.875 23.2782 174.991 23.2782C172.107 23.2782 169.294 22.5498 166.943 21.1941C164.593 19.8384 162.821 17.9226 161.873 15.7126C161.413 14.6305 160.549 13.6916 159.4 13.0262C158.252 12.3609 156.877 12.0022 155.466 12L18.7958 12C17.9036 11.9995 17.02 12.1416 16.1955 12.4183C15.371 12.695 14.6218 13.1007 13.9907 13.6124C13.3596 14.124 12.859 14.7316 12.5174 15.4003C12.1758 16.069 12 16.7857 12 17.5095L12 164.756C12 165.48 12.1758 166.197 12.5174 166.865C12.859 167.534 13.3596 168.142 13.9907 168.653C14.6218 169.165 15.371 169.571 16.1955 169.847C17.02 170.124 17.9036 170.266 18.7958 170.266L155.443 170.266C156.854 170.263 158.229 169.905 159.378 169.239C160.526 168.574 161.39 167.635 161.85 166.553C162.798 164.343 164.57 162.427 166.921 161.072C169.271 159.716 172.084 158.987 174.968 158.987C177.852 158.987 180.665 159.716 183.015 161.072C185.366 162.427 187.138 164.343 188.086 166.553C188.546 167.635 189.41 168.574 190.558 169.239C191.707 169.905 193.082 170.263 194.493 170.266L435.575 170.266C436.467 170.266 437.351 170.124 438.175 169.847C438.999 169.571 439.748 169.165 440.379 168.653C441.01 168.141 441.51 167.534 441.851 166.865C442.192 166.196 442.367 165.48 442.367 164.756V17.5095C442.369 16.5272 442.048 15.5622 441.437 14.7143C440.825 13.8664 439.945 13.1664 438.889 12.6868ZM176.133 151.866C176.135 152.053 176.069 152.236 175.942 152.391C175.815 152.547 175.634 152.669 175.421 152.74C175.208 152.812 174.974 152.83 174.749 152.792C174.523 152.755 174.317 152.664 174.156 152.53C173.942 152.353 173.822 152.114 173.822 151.866V140.966C173.821 140.779 173.888 140.597 174.015 140.442C174.141 140.287 174.322 140.166 174.534 140.094C174.746 140.022 174.979 140.004 175.204 140.04C175.43 140.076 175.636 140.166 175.799 140.297C176.013 140.476 176.133 140.716 176.133 140.966V151.866ZM176.133 133.191C176.134 133.378 176.067 133.56 175.94 133.715C175.813 133.87 175.632 133.991 175.42 134.063C175.208 134.134 174.975 134.153 174.75 134.117C174.525 134.081 174.318 133.991 174.156 133.86C173.942 133.68 173.822 133.441 173.822 133.191V122.291C173.821 122.105 173.888 121.923 174.015 121.767C174.141 121.612 174.322 121.491 174.534 121.42C174.746 121.348 174.979 121.329 175.204 121.365C175.43 121.401 175.636 121.491 175.799 121.623C176.013 121.802 176.133 122.041 176.133 122.291V133.191ZM176.133 114.517C176.143 114.645 176.12 114.773 176.067 114.894C176.013 115.015 175.929 115.125 175.821 115.219C175.713 115.312 175.582 115.387 175.437 115.438C175.292 115.489 175.135 115.515 174.977 115.515C174.819 115.515 174.662 115.489 174.517 115.438C174.372 115.387 174.241 115.312 174.133 115.219C174.025 115.125 173.941 115.015 173.888 114.894C173.834 114.773 173.812 114.645 173.822 114.517V103.602C173.823 103.416 173.891 103.235 174.018 103.081C174.146 102.927 174.326 102.807 174.537 102.736C174.748 102.664 174.98 102.645 175.205 102.68C175.429 102.715 175.636 102.803 175.799 102.933C176.013 103.112 176.133 103.352 176.133 103.602V114.517ZM176.133 95.846C176.143 95.9741 176.12 96.1024 176.067 96.2232C176.013 96.3439 175.929 96.4545 175.821 96.548C175.713 96.6416 175.582 96.7161 175.437 96.7671C175.292 96.818 175.135 96.8443 174.977 96.8443C174.819 96.8443 174.662 96.818 174.517 96.7671C174.372 96.7161 174.241 96.6416 174.133 96.548C174.025 96.4545 173.941 96.3439 173.888 96.2232C173.834 96.1024 173.812 95.9741 173.822 95.846V84.9383C173.824 84.7532 173.893 84.5727 174.02 84.4192C174.148 84.2657 174.328 84.1461 174.539 84.0752C174.75 84.0044 174.982 83.9854 175.206 84.0207C175.43 84.056 175.636 84.144 175.799 84.2737C176.012 84.4515 176.132 84.6899 176.133 84.9383V95.846ZM176.133 77.1715C176.133 77.2946 176.104 77.4167 176.046 77.5306C175.989 77.6446 175.904 77.7482 175.797 77.8354C175.689 77.9227 175.562 77.9919 175.422 78.0392C175.282 78.0864 175.131 78.1108 174.979 78.1108C174.672 78.1113 174.376 78.014 174.156 77.8397C173.943 77.6601 173.823 77.4208 173.822 77.1715V66.2712C173.821 66.085 173.888 65.9027 174.015 65.7475C174.141 65.5924 174.322 65.4713 174.534 65.3997C174.746 65.3281 174.979 65.3091 175.204 65.3453C175.43 65.3815 175.636 65.4712 175.799 65.6029C176.014 65.7814 176.134 66.0215 176.133 66.2712V77.1715ZM176.133 58.497C176.135 58.6836 176.069 58.8666 175.942 59.0224C175.815 59.1782 175.634 59.2996 175.421 59.3711C175.208 59.4426 174.974 59.4608 174.749 59.4235C174.523 59.3861 174.317 59.2949 174.156 59.1615C173.942 58.9837 173.822 58.7453 173.822 58.497V47.5967C173.821 47.4105 173.888 47.2282 174.015 47.073C174.141 46.9179 174.322 46.7968 174.534 46.7252C174.746 46.6535 174.979 46.6346 175.204 46.6708C175.43 46.707 175.636 46.7967 175.799 46.9284C176.013 47.1071 176.133 47.3471 176.133 47.5967V58.497ZM176.133 39.8224C176.133 39.9458 176.104 40.068 176.046 40.1822C175.989 40.2963 175.904 40.4001 175.797 40.4877C175.69 40.5753 175.562 40.6449 175.422 40.6925C175.282 40.7402 175.131 40.765 174.979 40.7654C174.827 40.7664 174.675 40.7427 174.534 40.6956C174.393 40.6485 174.264 40.579 174.156 40.4912C174.049 40.4034 173.963 40.299 173.906 40.1842C173.848 40.0693 173.82 39.9464 173.822 39.8224V28.9221C173.812 28.7941 173.834 28.6657 173.888 28.545C173.941 28.4243 174.025 28.3137 174.133 28.2202C174.241 28.1266 174.372 28.0521 174.517 28.0011C174.662 27.9501 174.819 27.9238 174.977 27.9238C175.135 27.9238 175.292 27.9501 175.437 28.0011C175.582 28.0521 175.713 28.1266 175.821 28.2202C175.929 28.3137 176.013 28.4243 176.067 28.545C176.12 28.6657 176.143 28.7941 176.133 28.9221V39.8224Z" fill="white"/>
</g>
<defs>
<filter id="filter0_d_107_3313" x="0" y="0" width="454.367" height="182.266" filterUnits="userSpaceOnUse" color-interpolation-filters="sRGB">
<feFlood flood-opacity="0" result="BackgroundImageFix"/>
<feColorMatrix in="SourceAlpha" type="matrix" values="0 0 0 0 0 0 0 0 0 0 0 0 0 0 0 0 0 0 127 0" result="hardAlpha"/>
<feOffset/>
<feGaussianBlur stdDeviation="6"/>
<feComposite in2="hardAlpha" operator="out"/>
<feColorMatrix type="matrix" values="0 0 0 0 0 0 0 0 0 0 0 0 0 0 0 0 0 0 0.25 0"/>
<feBlend mode="normal" in2="BackgroundImageFix" result="effect1_dropShadow_107_3313"/>
<feBlend mode="normal" in="SourceGraphic" in2="effect1_dropShadow_107_3313" result="shape"/>
</filter>
</defs>
</svg>
