<svg width="21" height="25" viewBox="0 0 21 25" fill="none" xmlns="http://www.w3.org/2000/svg">
<path d="M20.2075 17.0017C20.1199 16.8962 20.034 16.7908 19.9496 16.689C18.7894 15.2857 18.0875 14.4388 18.0875 10.4663C18.0875 8.40969 17.5955 6.72219 16.6258 5.45656C15.9107 4.52158 14.9441 3.8123 13.67 3.28812C13.6536 3.279 13.639 3.26704 13.6267 3.25279C13.1685 1.71822 11.9145 0.69043 10.5001 0.69043C9.08579 0.69043 7.83229 1.71822 7.37403 3.25121C7.3618 3.26494 7.34736 3.27652 7.33132 3.28549C4.35815 4.50945 2.91323 6.85771 2.91323 10.4647C2.91323 14.4388 2.21239 15.2857 1.05118 16.6874C0.966806 16.7892 0.880849 16.8925 0.79331 17.0001C0.567185 17.2728 0.423917 17.6046 0.38046 17.9562C0.337003 18.3078 0.395176 18.6644 0.548095 18.984C0.873466 19.6695 1.56692 20.0951 2.35847 20.0951H18.6476C19.4354 20.0951 20.1241 19.6701 20.4506 18.9877C20.6042 18.668 20.6629 18.3111 20.6198 17.9591C20.5767 17.6071 20.4336 17.2748 20.2075 17.0017V17.0017ZM10.5001 24.3154C11.2622 24.3148 12.0098 24.108 12.6638 23.7168C13.3178 23.3257 13.8537 22.7648 14.2147 22.0937C14.2317 22.0616 14.2401 22.0256 14.2391 21.9892C14.2381 21.9528 14.2277 21.9173 14.2089 21.8862C14.1901 21.855 14.1636 21.8293 14.1319 21.8114C14.1002 21.7935 14.0644 21.7841 14.0281 21.7842H6.97325C6.93682 21.784 6.90099 21.7934 6.86923 21.8112C6.83746 21.829 6.81086 21.8548 6.79201 21.886C6.77316 21.9171 6.76271 21.9526 6.76166 21.9891C6.76061 22.0255 6.76901 22.0615 6.78604 22.0937C7.14703 22.7647 7.68287 23.3255 8.33675 23.7167C8.99064 24.1078 9.73818 24.3147 10.5001 24.3154Z" fill="#F6B40E"/>
<circle cx="17.5" cy="5.5" r="3.5" fill="#E9425C"/>
</svg>
